<?xml version="1.0" encoding="utf-8"?>
<!-- Generator: Adobe Illustrator 19.0.0, SVG Export Plug-In . SVG Version: 6.00 Build 0)  -->
<svg version="1.1" id="Layer_1" xmlns="http://www.w3.org/2000/svg" xmlns:xlink="http://www.w3.org/1999/xlink" x="0px" y="0px"
	 viewBox="0 0 108.8 108.8" enable-background="new 0 0 108.8 108.8" xml:space="preserve">
<g id="XMLID_210_">
	<g id="XMLID_212_">
		
			<path id="XMLID_218_" fill="none" stroke="#344D5E" stroke-width="2.8" stroke-linecap="round" stroke-linejoin="round" stroke-miterlimit="22.9256" d="
			M65.3,60.4v12.7c0,2-1.6,3.6-3.6,3.6h-21c-2,0-3.6-1.6-3.6-3.6V34.6c0-2,1.6-3.6,3.6-3.6h21c1.6,0,4.1,0.5,4,3.6l-0.1,1.9"/>
		
			<line id="XMLID_217_" fill="none" stroke="#344D5E" stroke-width="2.8" stroke-linecap="round" stroke-linejoin="round" stroke-miterlimit="22.9256" x1="48.8" y1="72" x2="53.4" y2="72"/>
		
			<line id="XMLID_216_" fill="none" stroke="#344D5E" stroke-width="2.8" stroke-linecap="round" stroke-linejoin="round" stroke-miterlimit="22.9256" x1="37.6" y1="67.7" x2="64.5" y2="67.7"/>
		
			<line id="XMLID_215_" fill="none" stroke="#344D5E" stroke-width="2.8" stroke-linecap="round" stroke-linejoin="round" stroke-miterlimit="22.9256" x1="38.1" y1="36.3" x2="64.9" y2="36.3"/>
		
			<polygon id="XMLID_214_" fill="none" stroke="#344D5E" stroke-width="2.8" stroke-linecap="round" stroke-linejoin="round" stroke-miterlimit="22.9256" points="
			46.6,45.2 75.1,33.2 83,51.9 54.5,63.9 46.6,45.2 		"/>
		
			<polyline id="XMLID_213_" fill="none" stroke="#344D5E" stroke-width="2.8" stroke-linecap="round" stroke-linejoin="round" stroke-miterlimit="22.9256" points="
			75.1,33.2 65.8,50.9 46.6,45.2 		"/>
	</g>
	
		<circle id="XMLID_211_" fill="none" stroke="#344D5E" stroke-width="2.8" stroke-linecap="round" stroke-linejoin="round" stroke-miterlimit="22.9256" cx="54.4" cy="54.4" r="53"/>
</g>
</svg>
