<?xml version="1.0" encoding="utf-8"?>
<!-- Generator: Adobe Illustrator 19.0.0, SVG Export Plug-In . SVG Version: 6.00 Build 0)  -->
<svg version="1.1" id="Layer_1" xmlns="http://www.w3.org/2000/svg" xmlns:xlink="http://www.w3.org/1999/xlink" x="0px" y="0px"
	 viewBox="0 0 108.8 108.8" enable-background="new 0 0 108.8 108.8" xml:space="preserve">
<g id="XMLID_228_">
	<g id="XMLID_230_">
		
			<path id="XMLID_242_" fill="none" stroke="#344D5E" stroke-width="2.8" stroke-linecap="round" stroke-linejoin="round" stroke-miterlimit="22.9256" d="
			M77.3,34H31v32.9c26,0,33,0,46.3,0V34L77.3,34z"/>
		<path id="XMLID_237_" fill="none" stroke="#344D5E" stroke-width="2.8" stroke-miterlimit="22.9256" d="M39.2,51.9
			c-1.7,0-3,1.4-3,3c0,1.7,1.4,3,3,3c1.7,0,3-1.4,3-3C42.2,53.2,40.9,51.9,39.2,51.9L39.2,51.9z M49.2,41.7c-1.7,0-3,1.4-3,3
			c0,1.7,1.4,3,3,3c1.7,0,3-1.4,3-3C52.2,43.1,50.9,41.7,49.2,41.7L49.2,41.7z M59.2,50.8c-1.7,0-3,1.4-3,3c0,1.7,1.4,3,3,3
			c1.7,0,3-1.4,3-3C62.2,52.2,60.8,50.8,59.2,50.8L59.2,50.8z M69.1,46.2c-1.7,0-3,1.4-3,3c0,1.7,1.4,3,3,3c1.7,0,3-1.4,3-3
			C72.2,47.5,70.8,46.2,69.1,46.2L69.1,46.2z"/>
		
			<line id="XMLID_236_" fill="none" stroke="#344D5E" stroke-width="2.8" stroke-linecap="round" stroke-linejoin="round" stroke-miterlimit="22.9256" x1="41.9" y1="52.1" x2="46.6" y2="47.5"/>
		
			<line id="XMLID_235_" fill="none" stroke="#344D5E" stroke-width="2.8" stroke-linecap="round" stroke-linejoin="round" stroke-miterlimit="22.9256" x1="51.9" y1="47.3" x2="56.7" y2="51.6"/>
		
			<line id="XMLID_234_" fill="none" stroke="#344D5E" stroke-width="2.8" stroke-linecap="round" stroke-linejoin="round" stroke-miterlimit="22.9256" x1="62.2" y1="52.5" x2="65.7" y2="50.8"/>
		
			<line id="XMLID_233_" fill="none" stroke="#344D5E" stroke-width="2.8" stroke-linecap="round" stroke-linejoin="round" stroke-miterlimit="22.9256" x1="43.1" y1="75.1" x2="65.2" y2="75.1"/>
		
			<line id="XMLID_232_" fill="none" stroke="#344D5E" stroke-width="2.8" stroke-linecap="round" stroke-linejoin="round" stroke-miterlimit="22.9256" x1="48.6" y1="73.9" x2="48.6" y2="67.4"/>
		
			<line id="XMLID_231_" fill="none" stroke="#344D5E" stroke-width="2.8" stroke-linecap="round" stroke-linejoin="round" stroke-miterlimit="22.9256" x1="59.7" y1="73.9" x2="59.7" y2="67.4"/>
	</g>
	
		<circle id="XMLID_229_" fill="none" stroke="#344D5E" stroke-width="2.8" stroke-linecap="round" stroke-linejoin="round" stroke-miterlimit="22.9256" cx="54.4" cy="54.4" r="53"/>
</g>
</svg>
